# xmcd
#
# Track frame offsets: 
#        150
#        19002
#        33768
#        50309
#        69186
#        87363
#        99318
#        121572
#        134313
#        153692
#        170978
#
# Disc length: 2531 seconds
#
# Revision: 0
# Processed by: cddbd v1.5.2PL0 Copyright (c) Steve Scherf et al.
# Submitted via: ExactAudioCopyFreeDBPlugin 1.0
#
DISCID=8209e10b
DTITLE=Erik Koskinen - Keep It To Yourself
DYEAR=2010
DGENRE=Country
TTITLE0=Learning The Hard Way
TTITLE1=Pretty Girls
TTITLE2=Detroit Detroit
TTITLE3=Crying On The Inside
TTITLE4=Broken Hearts And Love Letters
TTITLE5=Smile Nice And I'll Give You A Kiss
TTITLE6=Cruel Cruel World
TTITLE7=Tell Me It's True
TTITLE8=Treat Me So Bad
TTITLE9=Devil's Blues
TTITLE10=The Good Time Are Really Gone
EXTD=
EXTT0=
EXTT1=
EXTT2=
EXTT3=
EXTT4=
EXTT5=
EXTT6=
EXTT7=
EXTT8=
EXTT9=
EXTT10=
PLAYORDER=
